<svg width="79" height="75" viewBox="0 0 79 75" fill="none" xmlns="http://www.w3.org/2000/svg">
<path d="M28.0861 24.848L25.0182 40.2735H20.7747L21.0615 38.7539C19.7808 39.9199 18.2038 40.5029 16.3306 40.5029C15.1264 40.5029 14.0177 40.2257 13.0047 39.6714C11.9916 39.1171 11.1792 38.3238 10.5675 37.2916C9.97499 36.2403 9.67871 35.0074 9.67871 33.593C9.67871 31.8918 10.0514 30.3626 10.7969 29.0055C11.5615 27.6292 12.5937 26.5588 13.8935 25.7942C15.1933 25.0105 16.6269 24.6187 18.1943 24.6187C20.5645 24.6187 22.237 25.3928 23.2119 26.9411L23.6133 24.848H28.0861ZM17.7068 36.8042C18.5861 36.8042 19.3698 36.594 20.0579 36.1734C20.7461 35.7338 21.2813 35.1317 21.6636 34.3671C22.0459 33.6025 22.237 32.7233 22.237 31.7293C22.237 30.678 21.9216 29.8465 21.2908 29.2348C20.6792 28.6232 19.819 28.3173 18.7104 28.3173C17.8311 28.3173 17.0474 28.5372 16.3593 28.9768C15.6711 29.3973 15.1359 29.9899 14.7536 30.7544C14.3713 31.519 14.1802 32.3983 14.1802 33.3923C14.1802 34.4436 14.486 35.2751 15.0977 35.8867C15.7285 36.4984 16.5982 36.8042 17.7068 36.8042Z" fill="url(#paint0_linear)"/>
<path d="M33.6321 40.5029C32.2941 40.5029 31.0229 40.3595 29.8187 40.0728C28.6336 39.767 27.7065 39.3751 27.0375 38.8973L28.7579 35.6573C29.4269 36.097 30.2392 36.4506 31.195 36.7182C32.1698 36.9858 33.1447 37.1196 34.1195 37.1196C35.1326 37.1196 35.8876 36.9954 36.3846 36.7469C36.8816 36.4793 37.1301 36.1065 37.1301 35.6287C37.1301 35.2464 36.9102 34.9692 36.4706 34.7972C36.031 34.6252 35.3237 34.4436 34.3489 34.2524C33.2402 34.0422 32.3227 33.8128 31.5964 33.5643C30.8891 33.3158 30.2679 32.9144 29.7327 32.3601C29.2166 31.7866 28.9586 31.0125 28.9586 30.0376C28.9586 28.3364 29.6658 27.008 31.0803 26.0523C32.5139 25.0965 34.3871 24.6187 36.7 24.6187C37.7704 24.6187 38.8121 24.7333 39.8252 24.9627C40.8383 25.1921 41.6984 25.5075 42.4057 25.9089L40.8001 29.1775C39.5385 28.3938 38.0189 28.0019 36.2412 28.0019C35.2664 28.0019 34.5209 28.1453 34.0048 28.432C33.5078 28.7187 33.2593 29.0819 33.2593 29.5216C33.2593 29.923 33.4792 30.2192 33.9188 30.4104C34.3584 30.5824 35.0943 30.7736 36.1265 30.9838C37.2161 31.1941 38.1049 31.4235 38.793 31.6719C39.5003 31.9013 40.1119 32.2932 40.628 32.8475C41.1441 33.4018 41.4022 34.1568 41.4022 35.1126C41.4022 36.8329 40.6758 38.1614 39.2231 39.098C37.7895 40.0346 35.9258 40.5029 33.6321 40.5029Z" fill="url(#paint1_linear)"/>
<path d="M53.5949 31.5573L58.8992 40.2735H53.7096L50.0396 34.2811L47.3157 36.5462L46.5703 40.2735H42.0975L46.3409 18.999H50.8137L48.434 30.8978L55.8313 24.848H61.6517L53.5949 31.5573Z" fill="url(#paint2_linear)"/>
<path d="M3.08423 15.9024V8.73438C3.08423 5.56737 5.6516 3 8.81861 3H70.4632C73.6302 3 76.1976 5.56737 76.1976 8.73438V48.8751C76.1976 52.0421 73.6302 54.6094 70.4632 54.6094H60.428L63.7818 70.2603C64.0749 71.6282 62.4357 72.563 61.4076 71.6141L46.0921 57.4766H8.81861C5.6516 57.4766 3.08423 54.9093 3.08423 51.7422V48.8751" stroke="url(#paint3_linear)" stroke-width="4.30079"/>
<defs>
<linearGradient id="paint0_linear" x1="9.67871" y1="18.999" x2="21.7578" y2="53.1105" gradientUnits="userSpaceOnUse">
<stop stop-color="#485BFF"/>
<stop offset="1" stop-color="#FF59F8"/>
</linearGradient>
<linearGradient id="paint1_linear" x1="9.67871" y1="18.999" x2="21.7578" y2="53.1105" gradientUnits="userSpaceOnUse">
<stop stop-color="#485BFF"/>
<stop offset="1" stop-color="#FF59F8"/>
</linearGradient>
<linearGradient id="paint2_linear" x1="9.67871" y1="18.999" x2="21.7578" y2="53.1105" gradientUnits="userSpaceOnUse">
<stop stop-color="#485BFF"/>
<stop offset="1" stop-color="#FF59F8"/>
</linearGradient>
<linearGradient id="paint3_linear" x1="3.08423" y1="3" x2="63.2952" y2="77.547" gradientUnits="userSpaceOnUse">
<stop stop-color="#485BFF"/>
<stop offset="1" stop-color="#FF59F8"/>
</linearGradient>
</defs>
</svg>
